<svg xmlns="http://www.w3.org/2000/svg" width="127" height="24" fill="none"><g fill="#676766" clip-path="url(#a)"><path d="M30.611 1.02h3.171v17.43H39v2.906h-8.388zM44.99 21.647q-2.334 0-3.574-1.337t-1.24-3.777V5.843q0-2.442 1.24-3.778T44.991.73t3.574 1.336q1.24 1.337 1.24 3.777v10.691q0 2.44-1.24 3.777t-3.575 1.337m0-2.906q1.644 0 1.644-2.004V5.639q0-2.005-1.644-2.005T43.348 5.64v11.098q0 2.004 1.643 2.004m11.454 2.905q-2.306 0-3.517-1.308-1.21-1.336-1.21-3.806V5.843q0-2.47 1.21-3.778Q54.14.73 56.445.73q2.306 0 3.517 1.336 1.21 1.307 1.21 3.777v1.743h-2.997V5.64q0-2.005-1.643-2.005T54.889 5.64v11.127q0 1.975 1.642 1.975 1.644 0 1.644-1.975v-3.98h-1.586V9.88h4.583v6.653q0 2.47-1.21 3.806-1.211 1.308-3.517 1.308m11.347 0q-2.335 0-3.574-1.337-1.24-1.336-1.24-3.777V5.843q0-2.442 1.24-3.778T67.792.73t3.575 1.336 1.24 3.777v10.691q0 2.44-1.24 3.777t-3.575 1.337m0-2.906q1.644 0 1.643-2.004V5.639q0-2.005-1.643-2.005T66.15 5.64v11.098q0 2.004 1.643 2.004M74.756 1.02h3.17v20.336h-3.17zm5.546 0h4.67q2.363 0 3.545 1.278T89.7 6.046V8.05q0 2.47-1.182 3.748t-3.546 1.278h-1.498v8.28h-3.171zm4.67 9.15q.778 0 1.153-.435.403-.435.403-1.482v-2.41q0-1.047-.403-1.482-.375-.436-1.154-.436h-1.498v6.246zm10.683 11.477q-2.306 0-3.488-1.308-1.181-1.336-1.182-3.806v-1.162h2.998v1.395q0 1.975 1.643 1.975.808 0 1.21-.465.433-.494.433-1.568 0-1.278-.576-2.237-.576-.988-2.133-2.354-1.96-1.743-2.739-3.137-.778-1.424-.778-3.196 0-2.41 1.21-3.719Q93.466.73 95.772.73q2.276 0 3.43 1.336 1.182 1.307 1.182 3.777v.843h-2.998V5.639q0-1.046-.404-1.51-.403-.495-1.182-.495-1.585 0-1.585 1.947 0 1.104.577 2.062.605.96 2.162 2.325 1.988 1.743 2.738 3.166.75 1.425.75 3.341 0 2.499-1.24 3.835-1.212 1.337-3.546 1.337m11.214 0q-2.306 0-3.517-1.308-1.21-1.336-1.21-3.806V1.02h3.171v15.746q0 1.045.403 1.51.432.465 1.21.465t1.182-.465q.432-.465.433-1.51V1.02h3.055v15.513q0 2.47-1.211 3.806-1.21 1.308-3.516 1.308m6.985-20.627h4.526l2.018 14.555h.057l2.019-14.555H127v20.336h-2.998V5.958h-.057l-2.307 15.398h-2.652L116.68 5.958h-.057v15.398h-2.768zM0 21.356c3.9 0 7.063-3.187 7.063-7.119S3.901 7.12 0 7.12v4.983c1.17 0 2.119.956 2.119 2.135 0 1.18-.949 2.136-2.119 2.136zM23.544 9.492a12.6 12.6 0 0 0-3.826-.594c-6.989 0-12.655 5.71-12.655 12.755q.002 1.061.167 2.076h7.863a5.1 5.1 0 0 1-.437-2.076c0-2.818 2.267-5.102 5.062-5.102 1.528 0 2.898.682 3.826 1.761zM1.242 0c.586 5.339 5.077 9.492 10.53 9.492 5.454 0 9.945-4.153 10.53-9.492h-7.576a3.18 3.18 0 0 1-2.954 2.017A3.18 3.18 0 0 1 8.82 0z"/></g><defs><clipPath id="a"><path fill="#fff" d="M0 0h127v24H0z"/></clipPath></defs></svg>