<svg xmlns="http://www.w3.org/2000/svg" width="18" height="18" fill="none"><path stroke="#F8F0DD" stroke-linecap="round" stroke-linejoin="round" d="M13.625 5.75c.236.836.375 1.874.375 3s-.14 2.164-.375 3m-9.75-6c-.235.836-.375 1.874-.375 3s.14 2.164.375 3M5.75 3.875c.836-.235 1.874-.375 3-.375s2.164.14 3 .375m-6 9.75c.836.236 1.874.375 3 .375s2.164-.14 3-.375M3.207 5.721c.145.029.32.029.668.029s.523 0 .668-.029A1.5 1.5 0 0 0 5.72 4.543c.029-.145.029-.32.029-.668s0-.523-.029-.668A1.5 1.5 0 0 0 4.543 2.03C4.398 2 4.223 2 3.875 2s-.523 0-.668.029A1.5 1.5 0 0 0 2.03 3.207c-.03.145-.03.32-.03.668s0 .523.029.668A1.5 1.5 0 0 0 3.207 5.72m9.75.001c.145.029.32.029.668.029s.523 0 .668-.029a1.5 1.5 0 0 0 1.178-1.178c.029-.145.029-.32.029-.668s0-.523-.029-.668a1.5 1.5 0 0 0-1.178-1.178C14.148 2 13.973 2 13.625 2s-.523 0-.668.029a1.5 1.5 0 0 0-1.178 1.178c-.029.145-.029.32-.029.668s0 .523.029.668a1.5 1.5 0 0 0 1.178 1.178m-9.75 9.75c.145.029.32.029.668.029s.523 0 .668-.029a1.5 1.5 0 0 0 1.178-1.178c.029-.145.029-.32.029-.668s0-.523-.029-.668a1.5 1.5 0 0 0-1.178-1.178c-.145-.029-.32-.029-.668-.029s-.523 0-.668.029a1.5 1.5 0 0 0-1.178 1.178c-.029.145-.029.32-.029.668s0 .523.029.668a1.5 1.5 0 0 0 1.178 1.178m9.75 0c.145.029.32.029.668.029s.523 0 .668-.029a1.5 1.5 0 0 0 1.178-1.178c.029-.145.029-.32.029-.668s0-.523-.029-.668a1.5 1.5 0 0 0-1.178-1.178c-.145-.029-.32-.029-.668-.029s-.523 0-.668.029a1.5 1.5 0 0 0-1.178 1.178c-.029.145-.029.32-.029.668s0 .523.029.668a1.5 1.5 0 0 0 1.178 1.178"/></svg>