<svg xmlns="http://www.w3.org/2000/svg" width="60" height="24" fill="none"><g clip-path="url(#a)"><path fill="#676766" d="M2.862 2.541c.156-.74.894-1.341 1.646-1.341h4.087L5.196 17.294H1.109c-.753 0-1.236-.6-1.08-1.341zm13.624 0c.157-.74.894-1.341 1.646-1.341h4.087L18.82 17.294h-4.087c-.752 0-1.236-.6-1.08-1.341zm27.25 0c.155-.74.892-1.341 1.645-1.341h4.087L46.07 17.294h-4.088c-.752 0-1.235-.6-1.078-1.341zM23.581 1.2h4.087c.752 0 1.236.6 1.08 1.341l-2.833 13.412c-.156.74-.894 1.34-1.646 1.34h-4.087zm27.249 0h4.087c.752 0 1.236.6 1.08 1.341l-2.834 13.412c-.156.74-.893 1.34-1.645 1.34H47.43zM30.11 2.541c.156-.74.893-1.341 1.645-1.341h4.088l-3.4 16.094h-4.087c-.752 0-1.236-.6-1.078-1.341zM37.206 1.2h4.088c.752 0 1.235.6 1.079 1.341l-4.249 20.118c-.157.74-.894 1.341-1.646 1.341H32.39zM7.691 11.93h5.45l-.85 4.023c-.156.74-.893 1.34-1.645 1.34H6.558zm19.021 6.705h5.45L31.028 24H26.94c-.753 0-1.236-.6-1.08-1.341zm14.792 1.248-.69 3.267c-.03.14-.076.18-.22.18h-.313c-.143 0-.174-.04-.144-.18l.69-3.267c.03-.14.077-.179.22-.179h.313c.143 0 .175.039.144.179m.908 2.204h-.065c-.068 0-.092.02-.106.087l-.206.976c-.03.14-.078.18-.22.18h-.314c-.142 0-.174-.04-.144-.18l.69-3.267c.03-.14.078-.179.22-.179h.648c.746 0 1.029.266.891.918l-.115.547c-.138.652-.533.918-1.28.918m.19-1.62-.18.856c-.016.068 0 .087.069.087h.103c.24 0 .369-.096.421-.343l.072-.343c.052-.246-.035-.343-.276-.343h-.103c-.068 0-.092.019-.107.087m2.242.528.51.56c.268.29.305.464.236.788l-.018.087c-.129.61-.436.948-1.148.948s-.887-.285-.723-1.064l.02-.096c.03-.14.078-.18.22-.18h.334c.142 0 .174.04.144.18l-.045.212c-.041.194.021.271.193.271s.266-.072.303-.246l.019-.092c.029-.136.013-.203-.134-.363l-.48-.517c-.27-.285-.303-.45-.235-.774l.022-.106c.13-.609.436-.948 1.148-.948s.888.286.724 1.064l-.02.097c-.03.14-.078.179-.22.179h-.335c-.142 0-.173-.039-.144-.18l.045-.212c.041-.193-.02-.27-.193-.27-.171 0-.266.072-.302.246l-.018.082c-.03.14-.014.208.097.334m2.875-1.112c.03-.14.077-.179.22-.179h.314c.142 0 .174.039.144.179l-.514 2.432c-.164.778-.46 1.063-1.172 1.063s-.888-.285-.723-1.064l.513-2.431c.03-.14.078-.179.22-.179h.314c.142 0 .174.039.144.179l-.538 2.547c-.04.194.026.271.213.271.181 0 .286-.077.327-.27zm2.044 1.967c.002.04.014.048.039.048.024 0 .041-.009.06-.048l.848-2.02c.041-.102.09-.126.213-.126h.477c.142 0 .173.039.144.179l-.69 3.267c-.03.14-.078.18-.22.18h-.226c-.142 0-.174-.04-.144-.18l.331-1.566c.009-.043.001-.053-.028-.053-.02 0-.042.01-.054.044l-.685 1.595c-.05.116-.113.16-.255.16h-.133c-.148 0-.192-.044-.192-.16l-.017-1.596c-.003-.033-.01-.043-.035-.043-.03 0-.042.01-.05.053l-.331 1.566c-.03.14-.077.18-.22.18h-.225c-.143 0-.174-.04-.144-.18l.69-3.267c.03-.14.077-.179.22-.179h.407c.172 0 .227.039.226.208zM60 1.2c0 .663-.534 1.2-1.192 1.2a1.196 1.196 0 0 1-1.192-1.2c0-.663.534-1.2 1.192-1.2S60 .537 60 1.2"/></g><defs><clipPath id="a"><path fill="#fff" d="M0 0h60v24H0z"/></clipPath></defs></svg>