<svg xmlns="http://www.w3.org/2000/svg" width="20" height="20" fill="none"><path stroke="#2A505D" d="M3.75 7.917h-.416c-.786 0-1.179 0-1.423.244s-.244.637-.244 1.423v7.083c0 .786 0 1.178.244 1.423.244.244.637.244 1.423.244h.416c.786 0 1.179 0 1.423-.244s.244-.637.244-1.423V9.584c0-.786 0-1.179-.244-1.423s-.637-.244-1.423-.244Zm1.667-4.375a1.875 1.875 0 1 1-3.75 0 1.875 1.875 0 0 1 3.75 0Zm4.855 4.375h-.688c-.786 0-1.179 0-1.423.244s-.244.637-.244 1.423v7.083c0 .786 0 1.178.244 1.423.244.244.637.244 1.423.244H10c.786 0 1.179 0 1.423-.244s.244-.637.244-1.423V13.75c0-1.38.44-2.5 1.74-2.5.65 0 1.177.56 1.177 1.25v3.75c0 .786 0 1.179.244 1.423s.637.244 1.422.244h.416c.785 0 1.178 0 1.422-.244s.244-.637.245-1.422v-4.584c0-2.07-1.969-3.75-3.919-3.75-1.11 0-2.1.544-2.747 1.395 0-.525 0-.788-.114-.983a.83.83 0 0 0-.299-.298c-.194-.114-.457-.114-.982-.114Z"/></svg>