<svg xmlns="http://www.w3.org/2000/svg" width="20" height="20" fill="none"><path stroke="#676766" stroke-linejoin="round" d="M5.152 8.611c-.815 0-.985.16-.985.926v1.39c0 .765.17.925.985.925h1.97v5.556c0 .766.17.926.984.926h1.97c.815 0 .985-.16.985-.926v-5.556h2.212c.618 0 .777-.113.947-.671l.422-1.39c.29-.956.111-1.18-.947-1.18H11.06V6.297c0-.512.44-.926.985-.926h2.803c.815 0 .985-.16.985-.926V2.593c0-.766-.17-.926-.985-.926h-2.803c-2.72 0-4.924 2.073-4.924 4.63V8.61z" clip-rule="evenodd"/></svg>