<svg xmlns="http://www.w3.org/2000/svg" width="18" height="18" fill="none"><path stroke="#F8F0DD" stroke-linecap="round" stroke-linejoin="round" d="M2 3v12.75m15-9v9m-15-9 3 1.5h12M2 12h3m12 0h-2.25M5 8.25v4.5c0 1.241.259 1.5 1.5 1.5h6.75c1.241 0 1.5-.259 1.5-1.5v-4.5"/><path stroke="#F8F0DD" stroke-linecap="round" stroke-linejoin="round" d="M5.61 8.25c.06-.318.155-.65.137-.977a1.55 1.55 0 0 0-.652-1.188c-.151-.104-.485-.21-.835-.302-.512-.133-.768-.2-1.066-.13-.213.048-.397.16-.66.363a1.57 1.57 0 0 0-.493.63A1 1 0 0 0 2 6.75"/></svg>