<svg xmlns="http://www.w3.org/2000/svg" width="40" height="40" fill="none"><path fill="#F8F0DD" d="M19.025 39.478a1.172 1.172 0 0 0 1.95 0c2.773-4.16 6.858-9.297 9.705-14.522 2.276-4.178 3.383-7.741 3.383-10.893C34.063 6.308 27.754 0 20 0S5.938 6.308 5.938 14.063c0 3.152 1.106 6.715 3.382 10.893 2.845 5.22 6.937 10.37 9.705 14.522M20 2.344c6.462 0 11.719 5.257 11.719 11.719 0 2.75-1.013 5.946-3.097 9.771-2.454 4.504-5.955 9.073-8.622 12.914-2.666-3.84-6.168-8.41-8.622-12.914-2.084-3.825-3.097-7.021-3.097-9.771C8.281 7.6 13.538 2.342 20 2.342"/><path fill="#F8F0DD" d="M20 21.094a7.04 7.04 0 0 0 7.031-7.032A7.04 7.04 0 0 0 20 7.033a7.04 7.04 0 0 0-7.031 7.03A7.04 7.04 0 0 0 20 21.095m0-11.719a4.693 4.693 0 0 1 4.688 4.688A4.693 4.693 0 0 1 20 18.75a4.693 4.693 0 0 1-4.687-4.687A4.693 4.693 0 0 1 20 9.375"/></svg>