<svg xmlns="http://www.w3.org/2000/svg" width="118" height="30" fill="none"><path fill="#F8F0DD" d="M21.333 0C9.408 0 0 9.68 0 21.667v6.666a1.667 1.667 0 1 0 3.333 0v-6.666c0-10.28 7.907-18.334 18-18.334s18 8.053 18 18.334v6.666a1.667 1.667 0 1 0 3.334 0v-6.666C42.667 9.692 33.272 0 21.333 0"/><path fill="#F8F0DD" d="M21.332 6.667c-8.271 0-15 6.729-15 15v6.666a1.667 1.667 0 1 0 3.333 0v-6.666C9.665 15.234 14.9 10 21.332 10s11.667 5.234 11.667 11.667v6.666a1.667 1.667 0 1 0 3.333 0v-6.666c0-8.271-6.729-15-15-15"/><path fill="#F8F0DD" d="M21.333 13.333c-4.595 0-8.333 3.739-8.333 8.334v6.666c0 .92.746 1.667 1.667 1.667H28c.92 0 1.667-.746 1.667-1.667v-6.666c0-4.595-3.739-8.334-8.334-8.334m5 13.334h-10v-5c0-2.757 2.243-5 5-5s5 2.243 5 5zM64.464 27l-7.31-9.384 6.562-7.752h5.406l-8.466 9.69v-3.638L70.176 27zm-11.22 0V2.52h4.59V27zm25.457.408q-2.584 0-4.59-1.088a8.1 8.1 0 0 1-3.095-3.094q-1.088-2.006-1.088-4.624 0-2.685 1.088-4.726 1.123-2.075 3.094-3.23 1.972-1.19 4.59-1.19 2.55 0 4.454 1.122a7.9 7.9 0 0 1 2.959 3.026q1.053 1.905 1.053 4.318v.782q0 .408-.067.85H73.192v-2.788h9.35q-.1-1.665-1.19-2.618-1.053-.952-2.651-.952-1.157 0-2.142.544-.987.51-1.564 1.598-.544 1.088-.544 2.754v.986q0 1.394.51 2.448.542 1.02 1.496 1.598.95.544 2.21.544 1.258 0 2.073-.544A3.37 3.37 0 0 0 82 21.73h4.692a7.7 7.7 0 0 1-1.599 2.89 8 8 0 0 1-2.754 2.04q-1.631.748-3.637.748M89.926 27V9.864h4.08l.442 3.162a6.7 6.7 0 0 1 1.53-1.904 7.4 7.4 0 0 1 2.142-1.224q1.224-.442 2.686-.442v4.862h-1.564a7.3 7.3 0 0 0-1.904.238 3.9 3.9 0 0 0-1.496.782q-.647.51-.986 1.428-.34.918-.34 2.312V27zm13.014 0V9.864h4.59V27zm2.312-19.482q-1.224 0-2.04-.714-.782-.748-.782-1.87t.782-1.836q.816-.748 2.04-.748 1.257 0 2.04.748.816.714.816 1.836t-.816 1.87q-.783.714-2.04.714m7.99 19.652q-1.293 0-2.074-.748a2.6 2.6 0 0 1-.782-1.904q0-1.122.782-1.87.781-.782 2.074-.782 1.224 0 2.006.782.782.748.782 1.87t-.782 1.904q-.782.748-2.006.748"/></svg>