<svg xmlns="http://www.w3.org/2000/svg" width="20" height="20" fill="none"><path stroke="#676766" stroke-linejoin="round" d="M2.083 10c0-3.732 0-5.598 1.16-6.758C4.401 2.083 6.267 2.083 10 2.083s5.598 0 6.757 1.16c1.16 1.159 1.16 3.025 1.16 6.757s0 5.598-1.16 6.757c-1.16 1.16-3.025 1.16-6.757 1.16s-5.598 0-6.758-1.16C2.083 15.597 2.083 13.732 2.083 10Z"/><path stroke="#676766" stroke-linejoin="round" d="M13.75 10a3.75 3.75 0 1 1-7.5 0 3.75 3.75 0 0 1 7.5 0Z"/><path stroke="#676766" stroke-linejoin="round" stroke-width="1.5" d="M14.59 5.417h-.008"/></svg>