<svg xmlns="http://www.w3.org/2000/svg" width="18" height="18" fill="none"><path stroke="#F8F0DD" stroke-linecap="round" stroke-linejoin="round" d="M17 8.75h-5.25a2.25 2.25 0 0 1-1.35-.45L8.6 6.95a2.25 2.25 0 0 0-1.35-.45H2"/><path stroke="#F8F0DD" stroke-linecap="round" stroke-linejoin="round" d="M2.75 6.5V8c0 2.828 0 4.243.879 5.121C4.507 14 5.922 14 8.75 14H11c2.107 0 3.16 0 3.917-.506.327-.219.608-.5.827-.827.506-.757.506-1.81.506-3.917M14 14v1.5M5 14v1.5m-.75-9V3.125a1.125 1.125 0 0 1 2.25 0V3.5"/></svg>