<svg xmlns="http://www.w3.org/2000/svg" width="72" height="26" fill="none"><path fill="#676766" d="M7.173 11.193q-.03.711-.03 1.8 0 1.09.03 1.816.03.711.121 1.134.106.425.288.59a.77.77 0 0 0 .515.167q.317 0 .5-.167.196-.165.287-.59.106-.423.137-1.134.03-.726.03-1.816 0-1.089-.03-1.8-.03-.726-.137-1.15-.09-.423-.287-.59-.183-.165-.5-.166a.77.77 0 0 0-.515.167q-.181.165-.288.59-.09.423-.121 1.15"/><path fill="#676766" fill-rule="evenodd" d="M7.71 1.756a6.635 6.635 0 0 0-6.496 6.736l.072 4.482-.072 4.482a6.635 6.635 0 0 0 6.496 6.736l4.488.096 4.488-.096a6.635 6.635 0 0 0 6.497-6.736l-.073-4.482.073-4.482a6.635 6.635 0 0 0-6.497-6.736l-4.488-.096zm4.643 16.925-1.696 1.468-1.545-1.664q-.181.03-.363.045a2 2 0 0 1-.38.03h-.272q-1.076 0-1.817-.287a2.5 2.5 0 0 1-1.197-.953q-.455-.681-.651-1.74-.197-1.074-.197-2.587t.197-2.571q.197-1.074.651-1.74a2.6 2.6 0 0 1 1.197-.983q.741-.318 1.817-.318t1.818.318q.741.302 1.196.983.454.666.651 1.74.197 1.058.197 2.571 0 1.558-.212 2.633-.211 1.073-.696 1.754zm4.781-7.2v-.606q0-.922-.182-1.255-.181-.333-.59-.333a.77.77 0 0 0-.515.166q-.182.167-.288.59-.09.424-.121 1.15-.03.711-.03 1.8 0 1.09.03 1.816.03.711.12 1.134.108.425.289.59a.77.77 0 0 0 .515.167q.257 0 .424-.122.166-.135.257-.438.09-.304.121-.802.046-.514.046-1.286h2.726v.802q0 1.135-.303 1.86-.303.727-.803 1.15a2.65 2.65 0 0 1-1.15.545q-.637.15-1.318.151-1.182 0-1.939-.287a2.35 2.35 0 0 1-1.181-.953q-.425-.681-.591-1.74-.152-1.074-.152-2.587 0-1.542.182-2.617.198-1.074.652-1.74a2.5 2.5 0 0 1 1.196-.953q.742-.302 1.833-.302.954 0 1.62.242.667.241 1.076.696.423.438.605 1.074.198.62.197 1.407v.68zM36.418 9.37l2.47 2.559 2.469-2.56h4.29l-4.618 4.388 4.618 4.387h-4.29l-2.47-2.566-2.469 2.566h-4.296l4.617-4.387-4.617-4.388zm-.238 4.387-5.022-4.772h5.424l2.305 2.389 2.305-2.39h5.231v-.006h8.865c2.027-.02 3.743 1.673 3.715 3.704 0 .73-.198 1.404-.594 2.004a3.7 3.7 0 0 1-1.128 1.111l1.89 2.424V16.65c0-1.232.922-2.017 1.982-2.538 1.07-.526 2.42-.854 3.546-1.12h.002l.012-.003c.694-.17 1.284-.316 1.704-.472.213-.08.353-.151.432-.212l.026-.02a.6.6 0 0 0-.172-.095c-.23-.09-.62-.156-1.211-.157-.632.007-1.17.058-1.536.187-.18.063-.29.135-.351.203a.3.3 0 0 0-.08.235l.01.394h-4.227v-.385c0-.789.155-1.449.465-1.99.312-.542.766-.939 1.32-1.223 1.087-.558 2.584-.697 4.253-.697 1.71 0 3.128.197 4.133.704.508.258.922.6 1.206 1.044q.425.67.424 1.568c0 1.105-.667 1.809-1.485 2.267-.795.445-1.794.698-2.624.9h3.965v3.277H59.4l.005.006h-4.632l-1.657-2.141h-2.49v2.141h-4.023l.007.007h-5.418l-2.305-2.395-2.304 2.395h-5.425zm10.243 4.594V9.163l-4.835 4.594zm6.883-2.355 1.657 2.142h3.654l-1.92-2.462q.181-.083.346-.184.631-.387 1.043-1.017a3.2 3.2 0 0 0 .531-1.795c.027-1.816-1.512-3.337-3.327-3.317h-8.48v8.775h3.431v-2.142zm11.674-.372c.12-.147.337-.272.626-.384.341-.134.78-.25 1.273-.367 1.69-.411 3.844-.973 3.844-2.8 0-2.142-1.99-2.932-5.377-2.932-3.184 0-5.442.518-5.638 3.14q-.014.186-.014.385h3.445v-.042c.019-.78 1.097-.963 2.351-.976 1.225 0 1.788.274 1.788.646 0 .46-1.087.727-2.451 1.062l-.037.009c-2.267.535-5.234 1.28-5.234 3.284v1.482H70.58v-2.507zm1.916-3.311-.003-.008.004.008m-12.103.367a.363.363 0 0 0-.367-.367h-3.8v.726h3.8c.11 0 .188-.033.257-.102a.34.34 0 0 0 .11-.257m.386 0a.75.75 0 0 0-.754-.751H50.24v1.495h4.185q.315 0 .531-.216a.72.72 0 0 0 .223-.528" clip-rule="evenodd"/><path fill="#676766" d="M32.44 24.475h1.643v-2.248l1.647 2.248h.822l1.647-2.248v2.248h1.644V20.26h-2.055l-1.647 2.107-1.644-2.107H32.44zm10.865-4.318c-1.587.003-2.886.461-2.88 2.057v.307c-.005 1.593 1.293 2.054 2.88 2.057 1.584-.003 2.883-.464 2.877-2.057v-.307c0-1.593-1.29-2.057-2.877-2.057m1.233 2.26c.01.69-.561.816-1.233.825-.674-.009-1.245-.134-1.236-.824v-.104c-.009-.686.562-.812 1.236-.821.672.01 1.243.135 1.233.821zm6.248-.043c0 .423-.241.771-.668.771h-1.8v-1.543h1.8c.427 0 .668.345.668.772m-4.112-2.107v4.214h3.752c1.157.015 2.017-.963 2.007-2.107.01-1.151-.85-2.123-2.007-2.107zm10.336 2.154c.01.693-.561.812-1.233.821-.674-.009-1.242-.128-1.236-.821v-2.16h-1.643v2.264c-.007 1.592 1.298 2.05 2.879 2.053 1.581-.003 2.886-.46 2.88-2.053V20.26H57.01zm2.388-2.161v4.215h4.934v-1.336h-3.29v-2.878zm5.495 4.22h4.934V23.4h-3.29v-.54h3.29v-.975h-3.29v-.54h3.29v-1.078h-4.934zM33.385 4.208V3.32h2.437q.178-.001.304.131a.42.42 0 0 1 .13.314q.001.18-.13.315a.4.4 0 0 1-.304.128zm-1.994-2.412v5.211h1.994V5.735h2.935c1.055.016 1.95-.895 1.934-1.97.015-1.078-.88-1.981-1.934-1.97zm10.834-.136c-1.926.004-3.502.57-3.495 2.544v.38c-.007 1.97 1.569 2.54 3.495 2.543 1.922-.003 3.499-.573 3.49-2.543v-.38c0-1.97-1.564-2.544-3.49-2.544m1.496 2.796c.011.853-.681 1.008-1.496 1.02-.818-.012-1.511-.167-1.5-1.02v-.128c-.011-.85.682-1.005 1.5-1.016.815.011 1.507.166 1.496 1.016zm9.772.639-1.184-3.3h-2.246l-1.188 3.3-1.184-3.3h-2.246l2.246 5.212h2.372l1.123-2.606 1.123 2.606h2.371l2.246-5.212H54.68zm3.587 1.912h5.987V5.67h-3.993v-.667h3.993V3.796h-3.993V3.13h3.993V1.795h-5.988zm7.049-5.215v5.212h1.994V5.732h1.782l.963 1.272h2.124l-1.115-1.462q.503-.242.807-.714.309-.478.308-1.066c.016-1.078-.88-1.982-1.933-1.97zm4.427 1.524a.44.44 0 0 1 .438.446q.001.18-.13.314a.42.42 0 0 1-.308.128h-2.433v-.888z"/></svg>