<svg xmlns="http://www.w3.org/2000/svg" width="107" height="24" fill="none"><g fill="#676766" clip-path="url(#a)"><path d="M30.872 12.481q.032-.615 0-1.23H7.536q-.008.153-.012.307H2.635l-.002.154H0v.308h2.632l.004.154h4.888q.003.154.012.307h6.7a5 5 0 0 1-.038-.615h9.839q0 .313-.038.615zm-.049-1.846h-6.94a5 5 0 0 0-.203-.615h-9.123q-.121.3-.203.615h-6.77q.016-.154.036-.308H2.732l.02-.15H0V9.87h2.801l.028-.158h4.89q.027-.155.06-.308h22.85q.128.605.194 1.231M30.48 8.79h-7.52a5 5 0 0 0-.587-.615h-6.508a5 5 0 0 0-.586.615h-7.35a11 11 0 0 1 .088-.308H3.128l.054-.173H0V8h3.285l.048-.135h4.889q.056-.154.117-.307h21.73q.239.6.41 1.23m-.675-1.846h-21.2q.07-.155.147-.308H3.863l.087-.17H0v-.307h4.116l.079-.138h4.888q.09-.156.184-.308H29.14q.369.593.664 1.23m-22.22 6.154h23.24q-.066.626-.196 1.23H23.38q.17-.296.3-.615h-9.124q.129.32.3.615H7.779a12 12 0 0 1-.061-.307H2.829l-.029-.163H0v-.307h2.752l-.02-.146H7.62l-.037-.307m.344 1.846h22.55q-.17.63-.41 1.23H21.5q.47-.26.871-.615h-6.508q.402.354.87.616H8.34q-.06-.153-.117-.308h-4.89l-.053-.149H0v-.307h3.178l-.05-.16h4.889zm.675 1.846h21.201q-.295.635-.664 1.23H9.267a12 12 0 0 1-.184-.307H4.195l-.09-.16H0v-.307h3.939l-.076-.148h4.889q-.076-.152-.149-.308m1.802 2.77q.135.156.278.307h17.042q.545-.581 1.006-1.23H9.676q.11.155.226.307H5.014l.121.157H0v.307h5.387q.063.077.129.151zm2.04 1.845q.223.16.455.308h12.608q.85-.548 1.595-1.23H11.305q.171.157.348.307H6.764q.1.084.201.166H0v.308h7.362q.097.072.194.141zM16.76 23.3c.788.168 1.605.256 2.443.256 1.878 0 3.653-.443 5.224-1.23H13.98q.327.164.666.307H9.757l.264.108H0v.308h10.9c1.08.33 2.227.507 3.415.507.838 0 1.656-.088 2.445-.256M9.676 5.097h19.055a12 12 0 0 0-1.006-1.231H10.683q-.143.15-.279.308H5.516l-.108.126H0v.308h5.154l-.14.18h4.888q-.115.153-.226.309m1.629-1.847h15.797a12 12 0 0 0-1.594-1.23H12.9q-.231.149-.455.307H7.556l-.201.147H0v.308h6.959l-.194.16h4.888q-.177.152-.348.308m2.675-1.846h10.448a11.6 11.6 0 0 0-5.224-1.23q-1.26.002-2.444.256a11.7 11.7 0 0 0-2.445-.256c-1.312 0-2.573.216-3.75.615H0v.308h14.646q-.337.143-.666.307M68.411 0q.606 0 .952.303.36.288.36.808t-.36.823q-.346.288-.952.289-.605 0-.966-.29-.346-.302-.346-.822 0-.519.346-.808.36-.303.966-.303m1.125 3.564v6.278q0 .607.202.823.217.216.72.216v.303a31 31 0 0 0-.806-.029 21 21 0 0 0-2.25 0q-.432.01-.865.029v-.303q.505 0 .706-.216.216-.216.217-.823V5.296q0-.65-.203-.952-.187-.318-.72-.318v-.303q.46.043.894.043.605 0 1.125-.043.533-.057.98-.159"/><path fill-rule="evenodd" d="M73.594 4.889V3.564q-.446.101-.98.16-.534.042-1.125.042-.433 0-.894-.043v.303q.519 0 .721.318.202.303.202.952v7.216q0 .577-.202.78-.187.2-.663.2v.304l.764-.043q.526-.014 1.053-.015.736 0 1.384.015.663.029 1.039.043v-.303q-.606 0-.952-.23-.347-.217-.347-.896v-1.446q.19.159.448.263.46.202 1.023.202.764 0 1.37-.274c.411-.18.772-.458 1.053-.808q.447-.549.678-1.342.245-.794.245-1.848 0-1.197-.346-1.99-.346-.81-.923-1.198a2.23 2.23 0 0 0-1.312-.405q-.837 0-1.471.433a2.15 2.15 0 0 0-.765.935m0 .496v5.231q.12.143.289.236.275.144.62.144.65 0 1.024-.432.375-.448.533-1.242.174-.807.174-1.919 0-1.241-.159-1.948-.159-.708-.433-1.01a.86.86 0 0 0-.663-.303q-.519 0-.952.404-.325.315-.433.839" clip-rule="evenodd"/><path d="M81.722 3.521q.606 0 1.053.159.462.145.664.289.49.331.606-.434h.302q-.029.405-.043.996-.015.578-.015 1.545h-.302a4.6 4.6 0 0 0-.275-1.054 2.1 2.1 0 0 0-.59-.852q-.375-.332-.981-.332-.419 0-.707.246-.288.231-.288.678 0 .433.26.765.258.318.663.62.418.29.865.62.476.362.865.723c.249.217.459.476.62.765q.231.417.231.995 0 .65-.375 1.14-.375.477-.995.736-.606.26-1.355.26a3.2 3.2 0 0 1-.78-.086q-.3-.075-.576-.217-.188-.086-.36-.159a3 3 0 0 0-.304-.144q-.144-.043-.26.101-.1.143-.158.404h-.302q.028-.462.043-1.126t.014-1.76h.303q.087.78.317 1.385.23.593.62.938.404.333 1.01.333.245 0 .476-.102a.84.84 0 0 0 .375-.332q.159-.23.159-.59 0-.637-.42-1.055a10 10 0 0 0-1.037-.909q-.462-.375-.88-.736a3.7 3.7 0 0 1-.663-.808 1.97 1.97 0 0 1-.26-1.01q0-.65.346-1.097c.235-.302.55-.532.909-.664.39-.155.806-.233 1.225-.23m17.902.159q-.375-.159-.98-.159a2.7 2.7 0 0 0-1.298.318q-.592.303-.938 1.024V3.565a9 9 0 0 1-.98.158q-.52.043-1.125.043-.433 0-.894-.043v.303q.533 0 .72.318.202.303.202.952v4.546q0 .606-.216.822-.202.217-.706.217v.303q.432-.02.865-.029.563-.029 1.125-.029.504 0 .98.029.491.015.721.029v-.303q-.375 0-.533-.216-.16-.216-.16-.823V5.83q.001-.476.188-.852a1.6 1.6 0 0 1 .52-.605c.203-.142.444-.217.692-.217q.331 0 .49.159a.7.7 0 0 1 .231.418q.057.26.057.62v4.489q0 .606-.158.822-.144.217-.533.217v.303q.258-.015.764-.029a18 18 0 0 1 2.048 0q.533.015.792.029v-.303q-.461 0-.648-.216-.188-.216-.188-.823V5.894l-.001-.045-.002-.146c.022-.24.087-.476.191-.695q.201-.39.519-.621a1.15 1.15 0 0 1 .692-.23q.375 0 .548.158a.68.68 0 0 1 .245.418q.072.26.072.62v4.489q0 .606-.158.822-.144.217-.534.217v.303q.26-.015.764-.029.512-.03 1.024-.029.534 0 1.082.029.547.015.822.029v-.303q-.504 0-.721-.216-.202-.216-.202-.823V5.96q0-.721-.101-1.155-.101-.447-.332-.72a1.5 1.5 0 0 0-.606-.405q-.374-.159-.98-.159-.735 0-1.384.303-.622.297-1.008 1.133a3 3 0 0 0-.031-.152 1.7 1.7 0 0 0-.331-.72 1.5 1.5 0 0 0-.606-.405m-7.347 5.93V3.564q-.446.101-.98.159-.519.043-1.125.043-.433 0-.894-.043v.303q.534 0 .72.318.203.303.203.952v3.78q0 .477-.202.867a1.5 1.5 0 0 1-.505.592 1.16 1.16 0 0 1-.692.216q-.36 0-.548-.144a.82.82 0 0 1-.26-.433q-.06-.315-.058-.635V3.564q-.446.101-.98.159a14 14 0 0 1-1.124.043 10 10 0 0 1-.895-.043v.303q.534 0 .721.318.202.303.202.952v3.651q0 .707.101 1.154.101.449.346.722.216.246.591.405.375.158.981.158.75 0 1.356-.303.62-.318.966-1.039v1.299q.484-.12.98-.16.52-.042 1.125-.042.448 0 .894.043v-.303q-.519 0-.721-.303-.202-.318-.202-.966z"/><path fill-rule="evenodd" d="M64.382 3.91q-.793-.389-1.846-.389-1.023 0-1.831.39-.793.39-1.255 1.255-.447.865-.447 2.295t.447 2.295q.461.85 1.254 1.24.81.39 1.832.39 1.053 0 1.846-.39t1.24-1.24q.447-.866.447-2.295t-.447-2.295q-.446-.866-1.24-1.255m-2.812.766q.39-.867.966-.866.593 0 .966.866.39.851.39 2.785t-.39 2.785q-.375.851-.966.852-.576 0-.966-.852-.39-.851-.389-2.785 0-1.935.39-2.785m-7.27 9.221q-.895 0-1.6-.159-.693-.144-1.096-.461-.39-.304-.39-.75 0-.449.404-.809.404-.345 1.197-.548l.13.23a1.5 1.5 0 0 0-.404.462 1.3 1.3 0 0 0-.116.534q0 .607.549.923.563.333 1.514.333.648 0 1.154-.173.518-.174.807-.52.303-.347.303-.851a.98.98 0 0 0-.317-.736q-.318-.29-1.27-.289h-.893q-.591 0-1.038-.13a1.44 1.44 0 0 1-.679-.404 1.08 1.08 0 0 1-.245-.721q.001-.606.476-1.069.373-.36 1.03-.688a3.7 3.7 0 0 1-.843-.206 2.2 2.2 0 0 1-1.023-.75q-.375-.505-.375-1.299t.375-1.3q.375-.519 1.024-.75a4.1 4.1 0 0 1 1.47-.245 4.1 4.1 0 0 1 1.471.246q.428.15.736.429.184-.265.447-.473.49-.375 1.053-.375.46 0 .692.26.246.245.245.65 0 .432-.23.648a.76.76 0 0 1-.52.203.73.73 0 0 1-.461-.174q-.203-.173-.23-.519-.026-.31.173-.77-.42.18-.65.41-.173.166-.299.372.036.044.068.089.375.506.375 1.298 0 .795-.375 1.3-.374.505-1.024.75a4.1 4.1 0 0 1-1.47.245 5 5 0 0 1-.247-.005q-.194.132-.374.28a.6.6 0 0 0-.23.49q0 .462.577.462h1.571q.794 0 1.414.187.634.189.995.621.375.419.375 1.097 0 .707-.462 1.313-.447.606-1.384.967-.937.375-2.38.375m.144-6.047q.39 0 .606-.432.217-.449.217-1.602 0-1.155-.217-1.588-.216-.447-.605-.447-.375 0-.606.447-.216.433-.216 1.588 0 1.154.216 1.602.231.432.605.432m-5.096-3.94q-.794-.389-1.846-.389-1.023 0-1.831.39-.793.39-1.255 1.255-.447.865-.447 2.295t.447 2.295q.46.85 1.254 1.24.809.39 1.832.39 1.053 0 1.846-.39t1.24-1.24q.447-.866.447-2.295t-.447-2.295-1.24-1.255m-2.812.766q.39-.867.966-.866.591 0 .966.866.39.851.39 2.785t-.39 2.785q-.375.851-.966.852-.577 0-.967-.852-.389-.851-.389-2.785t.39-2.785" clip-rule="evenodd"/><path d="M40.084.967v.289q-.49.014-.75.115a.52.52 0 0 0-.332.347q-.086.245-.086.779v7.33q0 .448.058.665.072.216.26.288.202.072.59.072h.708q.49 0 .922-.23.434-.23.779-.65a3.9 3.9 0 0 0 .577-1.025q.23-.591.346-1.313h.332q-.044.49-.043 1.27 0 .332.014.967t.086 1.313q-.829-.03-1.658-.029-.922-.014-1.644-.014h-.923q-.563 0-1.211.014-.65 0-1.312.015-.664 0-1.255.014v-.289q.46-.028.692-.115a.49.49 0 0 0 .303-.346q.086-.26.086-.78V2.497q0-.535-.086-.78a.48.48 0 0 0-.317-.346q-.231-.102-.678-.116V.967q1.14.042 2.278.043.635 0 1.24-.014.62-.015 1.024-.03"/><path fill-rule="evenodd" d="M104.461 23.11a.9.9 0 0 1 .042-.405l2.031-7.364a6 6 0 0 1-1.006.31q-.528.105-1.212.115l-.073.218q.508 0 .633.166.124.165.031.518l-.481 1.815a.54.54 0 0 0-.152-.228q-.175-.165-.487-.166-.621 0-1.15.28a3.5 3.5 0 0 0-.943.747 4.6 4.6 0 0 0-.716 1.017q-.282.542-.445 1.13a4 4 0 0 0-.156 1.038q0 .498.156.819.155.311.424.466.27.147.602.146.507 0 .912-.3.403-.312.757-.955.147-.262.296-.59l-.069.258a3 3 0 0 0-.124.622q-.02.27.042.457.123.508.767.508.237 0 .487-.093.249-.094.466-.322.228-.228.363-.654l.249-.757h-.197l-.166.467q-.187.53-.352.715-.156.178-.322.177-.175 0-.207-.156m-.553-2.671a9 9 0 0 1-.255.72 7.3 7.3 0 0 1-.55 1.142q-.28.465-.549.726-.27.248-.477.249-.197 0-.29-.187-.083-.197-.083-.591 0-.56.124-1.141.125-.591.342-1.13.201-.508.498-.966.28-.435.591-.684.321-.25.632-.25.207.001.332.146a.6.6 0 0 1 .133.275z" clip-rule="evenodd"/><path d="M97.564 23.587h-1.275l1.243-4.47q.095-.312.063-.436-.03-.125-.187-.125-.196 0-.363.197-.165.197-.341.696l-.177.486h-.197l.27-.777q.145-.414.362-.643a1.2 1.2 0 0 1 .478-.332 1.6 1.6 0 0 1 .528-.094q.332 0 .487.136.166.135.208.352.053.237.02.477a3 3 0 0 1-.083.488l-.167.65.043-.11q.29-.738.56-1.173.28-.445.59-.633c.203-.123.437-.188.674-.187q.373 0 .57.218a.75.75 0 0 1 .208.54q0 .259-.125.487c-.08.143-.194.264-.332.353a.83.83 0 0 1-.455.124.6.6 0 0 1-.415-.135q-.145-.135-.145-.393 0-.228.103-.416a1 1 0 0 1 .27-.31 1 1 0 0 1 .363-.188.13.13 0 0 0-.052-.03.2.2 0 0 0-.073-.01.8.8 0 0 0-.466.165q-.24.155-.498.509a5.5 5.5 0 0 0-.528.933q-.305.687-.54 1.4-.117.345-.235.743z"/><path fill-rule="evenodd" d="m93.69 21.984-.043.161q-.098.352-.135.716a.9.9 0 0 0 .103.56q.209.31.705.311a1.3 1.3 0 0 0 .943-.415q.218-.238.363-.664l.26-.756h-.198l-.155.466q-.186.54-.362.716-.177.176-.343.176-.135 0-.176-.083a.6.6 0 0 1-.02-.218q.02-.132.061-.26l1.338-4.605q-.313.075-.633.104a10 10 0 0 1-.694.041l-.15.555a.86.86 0 0 0-.12-.399.6.6 0 0 0-.539-.3q-.455 0-.912.28a3.7 3.7 0 0 0-.86.746 5.8 5.8 0 0 0-.726 1.037 6 6 0 0 0-.487 1.172 4 4 0 0 0-.176 1.13q0 .583.27.934.269.343.829.343.393 0 .757-.228.372-.23.704-.757.205-.318.396-.763m-.893 1.053q-.239.218-.425.218-.156 0-.239-.156-.072-.166-.072-.55-.001-.55.124-1.13a7.5 7.5 0 0 1 .332-1.12q.218-.54.477-.965.258-.425.518-.674.27-.25.508-.249.248 0 .352.249.104.225.054.603l-.306 1.133.035-.18q-.167.663-.395 1.224a6.6 6.6 0 0 1-.476.964q-.25.404-.487.633m-3.456-.332a.9.9 0 0 0-.041.404q.03.156.207.156.166 0 .32-.176.168-.187.353-.716l.166-.467h.197l-.248.757q-.135.426-.363.654a1.3 1.3 0 0 1-.467.322 1.4 1.4 0 0 1-.487.093q-.642 0-.767-.508a1.2 1.2 0 0 1-.041-.457q.02-.27.124-.622l.069-.257a8 8 0 0 1-.297.589q-.352.643-.756.954a1.5 1.5 0 0 1-.913.301q-.33 0-.6-.145a1.07 1.07 0 0 1-.426-.467q-.155-.322-.155-.82 0-.477.155-1.037.156-.57.446-1.13c.19-.37.431-.712.715-1.017q.424-.466.943-.747c.355-.187.75-.283 1.15-.28q.311 0 .488.166.1.09.152.228l.48-1.815q.094-.352-.03-.519-.126-.166-.633-.166l.073-.217a7 7 0 0 0 1.212-.114q.517-.111 1.006-.311zm-.85-1.546q.139-.34.255-.72l.449-1.691a.64.64 0 0 0-.134-.275.42.42 0 0 0-.331-.145q-.312 0-.633.248a2.8 2.8 0 0 0-.59.685 5.5 5.5 0 0 0-.498.965 6.7 6.7 0 0 0-.342 1.13 5.4 5.4 0 0 0-.125 1.142q0 .394.083.59.094.188.29.188.208 0 .477-.25.27-.258.55-.726.323-.547.549-1.14" clip-rule="evenodd"/><path d="M79.509 23.587h1.275l.12-.47-.007.034q.198-.725.446-1.4.242-.645.539-1.265.28-.582.56-1.017t.539-.674q.259-.25.476-.249.176 0 .218.124a.6.6 0 0 1 .01.29 3 3 0 0 1-.082.333l-.943 2.852q-.146.436-.166.747t.114.508q.103.156.29.239.197.092.467.093.247 0 .497-.093.259-.084.477-.311.227-.228.373-.665l.259-.756h-.197l-.166.466q-.196.54-.373.716-.166.176-.321.176-.166 0-.208-.135-.04-.144.052-.425l1.016-3.05q.135-.404.135-.756.01-.363-.197-.581-.198-.228-.705-.228-.384 0-.736.166-.352.165-.684.58-.332.405-.684 1.1-.235.468-.429.954l.346-1.348q.062-.25.093-.498.031-.259-.02-.467a.6.6 0 0 0-.239-.353q-.176-.135-.518-.135-.415 0-.757.229-.342.228-.56.84l-.269.777h.197l.176-.487q.186-.507.342-.695.165-.196.363-.197.145 0 .177.084a.34.34 0 0 1 .02.207 2 2 0 0 1-.062.27z"/><path fill-rule="evenodd" d="m76.866 22.145.044-.16q-.166.398-.396.762-.332.529-.706.757a1.4 1.4 0 0 1-.756.228q-.56 0-.829-.342-.27-.352-.27-.934 0-.54.177-1.13.18-.612.487-1.173c.203-.37.446-.719.725-1.037.247-.291.537-.543.86-.747q.456-.28.913-.28.352 0 .539.302a.85.85 0 0 1 .12.399l.15-.555q.373-.01.694-.042.33-.03.632-.104l-1.337 4.607a1.6 1.6 0 0 0-.062.259.6.6 0 0 0 .02.217q.042.084.176.084.166 0 .342-.177.177-.176.363-.715l.156-.467h.197l-.26.757a1.9 1.9 0 0 1-.362.664 1.3 1.3 0 0 1-.943.415q-.498 0-.705-.311a.9.9 0 0 1-.104-.56q.037-.364.135-.717m-1.275 1.11q.187 0 .425-.218a3.2 3.2 0 0 0 .487-.633q.249-.404.477-.964a9 9 0 0 0 .394-1.225l-.035.181.306-1.133q.05-.378-.053-.603-.104-.249-.353-.249-.238 0-.508.249a3.4 3.4 0 0 0-.518.674 6.6 6.6 0 0 0-.477.965q-.21.547-.332 1.12-.121.558-.124 1.13 0 .385.073.55.082.156.238.156" clip-rule="evenodd"/><path d="m74.673 18.442.031-.208h-1.235l.489-1.7q-.308.075-.622.103-.321.03-.695.042l-.445 1.555h-.944l-.051.208h.936l-1.061 3.703q-.134.456-.093.82a.88.88 0 0 0 .29.56q.249.207.715.207.53 0 .912-.28.384-.28.602-.924l.207-.622h-.197l-.155.425q-.187.519-.415.727-.217.207-.436.207a.37.37 0 0 1-.3-.135q-.104-.134-.02-.425l1.224-4.263zM71.24 16.17q-.103.27-.28.789-.165.508-.331 1.327h-.208q.03-.145.042-.3a2 2 0 0 0 .02-.28q0-.405-.165-.706a1.1 1.1 0 0 0-.487-.488q-.321-.186-.83-.186-.55 0-.932.29-.384.28-.384.903 0 .384.176.726.187.333.467.653.29.312.61.633.323.311.602.643.281.332.457.705.186.363.186.799 0 .55-.27.944a2.1 2.1 0 0 1-.673.633 3.3 3.3 0 0 1-.902.352 3.7 3.7 0 0 1-.933.125q-.466 0-.777-.072a1.8 1.8 0 0 1-.508-.177 22 22 0 0 1-.405-.228.6.6 0 0 0-.207-.114.4.4 0 0 0-.155-.042q-.135 0-.228.135-.122.203-.207.425h-.208q.257-.634.425-1.296.124-.477.28-1.193h.207a6 6 0 0 0-.072.414 2 2 0 0 0-.02.416q.03.725.445 1.12.425.394 1.243.394.695 0 1.048-.29.352-.3.352-.872 0-.435-.166-.788a2.7 2.7 0 0 0-.415-.674q-.263-.316-.549-.612-.285-.296-.55-.612a3.2 3.2 0 0 1-.424-.685 2 2 0 0 1-.166-.83q0-.518.218-.902a2 2 0 0 1 .58-.633c.242-.172.512-.302.798-.384a2.9 2.9 0 0 1 .86-.134q.56 0 .923.135.364.135.622.321l.197.125a.4.4 0 0 0 .145.04q.144 0 .342-.549z"/><path fill-rule="evenodd" d="M61.235 23.11a.9.9 0 0 1 .042-.405l2.031-7.364a6 6 0 0 1-1.005.31q-.53.105-1.213.115l-.073.218q.508 0 .633.166.124.165.031.518l-.48 1.815a.54.54 0 0 0-.152-.228q-.177-.165-.487-.166-.622 0-1.15.28a3.6 3.6 0 0 0-.944.747 4.6 4.6 0 0 0-.715 1.017q-.283.542-.446 1.13a4 4 0 0 0-.156 1.038q0 .498.156.819.156.311.425.466.27.147.601.146.508 0 .912-.3.405-.312.757-.955.147-.262.296-.59l-.068.258a3 3 0 0 0-.124.622q-.025.233.04.457.125.508.768.508.238 0 .487-.093.249-.094.466-.322.229-.228.363-.654l.25-.757h-.198l-.166.467q-.186.53-.352.715-.155.178-.322.177-.175 0-.207-.156m-.553-2.671a9 9 0 0 1-.255.72 7.3 7.3 0 0 1-.55 1.142q-.28.465-.549.726-.27.248-.477.249-.195 0-.29-.187-.083-.197-.083-.591 0-.56.125-1.141.124-.591.341-1.13.202-.508.499-.966a2.8 2.8 0 0 1 .59-.684q.321-.25.632-.25.209.001.332.146a.6.6 0 0 1 .133.275z" clip-rule="evenodd"/><path d="M52.718 23.587h-1.275l1.255-4.47q.041-.146.061-.27a.34.34 0 0 0-.02-.207q-.031-.084-.176-.084-.197 0-.363.197-.156.188-.342.696l-.176.486h-.197l.27-.777q.218-.612.56-.84.34-.228.756-.228.341 0 .518.134a.6.6 0 0 1 .239.353q.05.207.02.467a4 4 0 0 1-.093.498l-.346 1.349q.22-.544.429-.955.352-.695.684-1.1.331-.414.684-.58.352-.167.736-.167.507 0 .704.229.208.217.197.58 0 .354-.135.758l-1.015 3.05q-.093.28-.052.424.042.135.208.135.155 0 .32-.176.176-.177.374-.716l.166-.466h.197l-.26.756q-.145.436-.372.665a1.14 1.14 0 0 1-.477.31 1.4 1.4 0 0 1-.498.094 1.1 1.1 0 0 1-.466-.093.66.66 0 0 1-.29-.239q-.135-.196-.115-.508.022-.311.166-.747l.944-2.852q.051-.165.083-.332a.6.6 0 0 0-.01-.29q-.042-.125-.218-.125-.219 0-.477.249-.26.239-.54.674a10 10 0 0 0-.559 1.017 16 16 0 0 0-.54 1.265q-.248.675-.444 1.4l.006-.033z"/><path fill-rule="evenodd" d="m48.845 21.984-.043.161q-.098.353-.136.716a.9.9 0 0 0 .104.56q.207.31.705.311a1.3 1.3 0 0 0 .943-.415q.218-.238.363-.663l.258-.757h-.196l-.155.466q-.188.54-.363.716-.177.176-.342.176-.135 0-.176-.083a.5.5 0 0 1-.021-.218q.02-.134.062-.26l1.337-4.605q-.313.075-.632.104a10 10 0 0 1-.695.041l-.15.555a.86.86 0 0 0-.12-.399.6.6 0 0 0-.538-.3q-.457 0-.912.28-.456.28-.86.746a5.8 5.8 0 0 0-.726 1.037 6 6 0 0 0-.487 1.173 4 4 0 0 0-.176 1.13q0 .581.269.934.27.342.829.342.394 0 .756-.228.375-.23.706-.757.205-.318.396-.763m-.894 1.053q-.238.218-.425.218-.156 0-.238-.156-.072-.166-.073-.55 0-.55.125-1.13.124-.581.331-1.12.218-.54.477-.965.26-.425.518-.674.27-.249.508-.249.248 0 .353.249.103.225.053.603l-.306 1.133.035-.18q-.166.663-.394 1.224a6.6 6.6 0 0 1-.477.964q-.249.404-.487.633" clip-rule="evenodd"/><path d="M43.117 23.587h-1.275l1.243-4.47q.093-.312.062-.436-.03-.125-.186-.125-.197 0-.363.197t-.342.696l-.176.486h-.197l.27-.777q.144-.414.362-.643a1.2 1.2 0 0 1 .477-.332q.258-.093.53-.094.33 0 .486.136c.11.088.183.213.207.352q.053.218.02.477a3 3 0 0 1-.082.488l-.166.65.016-.045.026-.066q.29-.735.56-1.172.28-.445.59-.633a1.3 1.3 0 0 1 .674-.187q.372 0 .57.218a.75.75 0 0 1 .207.54q0 .259-.125.487c-.08.143-.194.264-.33.353a.84.84 0 0 1-.457.124.6.6 0 0 1-.415-.135q-.145-.135-.145-.393 0-.228.104-.416a1 1 0 0 1 .27-.31 1 1 0 0 1 .362-.188.13.13 0 0 0-.051-.03.2.2 0 0 0-.074-.01.8.8 0 0 0-.466.165q-.237.155-.497.509a5.6 5.6 0 0 0-.529.933q-.304.687-.539 1.4-.117.345-.235.743z"/><path fill-rule="evenodd" d="M41.178 16.627q-.519-.374-1.659-.373-.352 0-.705.01-.342.01-.787.01h-.519q-.28-.01-.529-.01l-.414-.02-.052.207q.405 0 .55.104.154.092.145.29a3 3 0 0 1-.084.498l-1.368 5.145a2 2 0 0 1-.207.56.55.55 0 0 1-.31.249 2.4 2.4 0 0 1-.55.082l-.041.207q.175-.01.424-.01.249-.01.529-.01a21 21 0 0 1 1.565.01q.425.01.778.011.672 0 1.274-.135c.37-.084.723-.228 1.047-.425.29-.172.534-.41.715-.695q.27-.416.27-.975 0-.633-.518-1.09-.508-.456-1.607-.539a4.5 4.5 0 0 0 1.316-.404q.58-.3.912-.737a1.54 1.54 0 0 0 .342-.975 1.14 1.14 0 0 0-.517-.985m-3.309 3.236-.693 2.625a4 4 0 0 0-.082.456q-.011.197.103.301t.425.103q.736 0 1.202-.28c.304-.179.547-.446.695-.767q.228-.498.228-1.12 0-.385-.135-.675a.95.95 0 0 0-.404-.466q-.279-.177-.747-.177zm.047-.176h.473q.592 0 1.005-.301.426-.31.643-.809a2.5 2.5 0 0 0 .228-1.048q0-.518-.207-.799-.197-.28-.695-.28-.362.001-.518.146-.154.135-.27.59z" clip-rule="evenodd"/></g><defs><clipPath id="a"><path fill="#fff" d="M0 0h107v24H0z"/></clipPath></defs></svg>