<svg width="24" height="24" viewBox="0 0 24 24" fill="none" xmlns="http://www.w3.org/2000/svg">
<path d="M16 22C14.114 22 13.172 22 12.586 21.414C12 20.828 12 19.886 12 18V6C12 4.114 12 3.172 12.586 2.586C13.172 2 14.114 2 16 2H18C19.886 2 20.828 2 21.414 2.586C22 3.172 22 4.114 22 6V18C22 19.886 22 20.828 21.414 21.414C20.828 22 19.886 22 18 22H16Z" stroke="#222222" stroke-width="1.5"/>
<path d="M12 12H14M12 6H14M12 18H14M12 15H15M12 9H15" stroke="#222222" stroke-width="1.5" stroke-linecap="round"/>
<path d="M2 5.8V4.85C2 3.276 3.343 2 5 2C6.657 2 8 3.276 8 4.85V5.8M2 5.8C2 5.8 3.125 6.75 5 6.75C6.875 6.75 8 5.8 8 5.8M2 5.8V15.534C2 16.125 2 16.421 2.038 16.711C2.08267 17.055 2.166 17.39 2.288 17.716C2.39 17.991 2.529 18.256 2.808 18.785L3.988 21.027M8 5.8V15.534C8 16.125 8 16.421 7.962 16.711C7.918 17.055 7.83467 17.39 7.712 17.716C7.61 17.991 7.471 18.256 7.192 18.785L6.012 21.027M3.988 21.027L4.276 21.575C4.34633 21.7052 4.451 21.8137 4.57864 21.8886C4.70628 21.9635 4.85201 22.0021 5 22C5.14799 22.0021 5.29372 21.9635 5.42136 21.8886C5.549 21.8137 5.65367 21.7052 5.724 21.575L6.012 21.027M3.988 21.027H6.012" stroke="#222222" stroke-width="1.5"/>
</svg>
