<svg width="24" height="24" viewBox="0 0 24 24" fill="none" xmlns="http://www.w3.org/2000/svg">
<path d="M6.88604 18H16.533C17.15 18 17.459 18 17.735 17.961C18.861 17.803 19.835 17.176 20.359 16.271C20.488 16.049 20.585 15.788 20.78 15.265L21.9 12.265C22.315 11.15 21.387 10 20.073 10C19.263 10 18.539 10.453 18.263 11.134L17.263 13.6C17.068 14.078 16.971 14.317 16.787 14.483C16.6857 14.5743 16.5694 14.6473 16.438 14.702C16.2 14.8 15.916 14.8 15.347 14.8H8.36704C8.07404 14.8 7.92704 14.8 7.79704 14.773C7.50099 14.717 7.23683 14.5518 7.05704 14.31C6.98504 14.21 6.93504 14.086 6.83504 13.84L5.73704 11.134C5.46104 10.454 4.73704 10 3.92704 10C2.61304 10 1.68504 11.15 2.10004 12.264L3.40304 15.757L3.44204 15.859C3.93904 17.124 5.26504 17.979 6.76504 17.999L6.88604 18Z" stroke="#222222" stroke-width="1.5"/>
<path d="M6 12V8.571C6 6.416 6 5.339 6.703 4.669C7.406 3.999 8.537 4 10.8 4H13.2C15.463 4 16.594 4 17.297 4.67C18 5.338 18 6.415 18 8.57V12" stroke="#222222" stroke-width="1.5"/>
<path d="M18 20V18M6 20V18.667" stroke="#222222" stroke-width="1.5" stroke-linecap="round"/>
</svg>
