<svg width="64" height="64" viewBox="0 0 64 64" fill="none" xmlns="http://www.w3.org/2000/svg">
<rect width="64" height="64" rx="32" fill="#F6F6F6"/>
<path d="M22 26C22 24.9391 22.4214 23.9217 23.1716 23.1716C23.9217 22.4214 24.9391 22 26 22C27.0609 22 28.0783 22.4214 28.8284 23.1716C29.5786 23.9217 30 24.9391 30 26V38C30 39.0609 29.5786 40.0783 28.8284 40.8284C28.0783 41.5786 27.0609 42 26 42C24.9391 42 23.9217 41.5786 23.1716 40.8284C22.4214 40.0783 22 39.0609 22 38V26Z" stroke="#222222" stroke-width="1.5"/>
<path d="M29.7045 28.3516L33.0678 25.1366C33.8293 24.4089 34.8622 24 35.9392 24C37.0162 24 38.0491 24.4089 38.8106 25.1366C39.5722 25.8644 40 26.8514 40 27.8806C40 28.9098 39.5722 29.8969 38.8106 30.6246L29 40" stroke="#222222" stroke-width="1.5"/>
<path d="M26 42H38C39.0609 42 40.0783 41.5786 40.8284 40.8284C41.5786 40.0783 42 39.0609 42 38C42 36.9391 41.5786 35.9217 40.8284 35.1716C40.0783 34.4214 39.0609 34 38 34H35.5M27 38C27 38.2652 26.8946 38.5196 26.7071 38.7071C26.5196 38.8946 26.2652 39 26 39C25.7348 39 25.4804 38.8946 25.2929 38.7071C25.1054 38.5196 25 38.2652 25 38C25 37.7348 25.1054 37.4804 25.2929 37.2929C25.4804 37.1054 25.7348 37 26 37C26.2652 37 26.5196 37.1054 26.7071 37.2929C26.8946 37.4804 27 37.7348 27 38Z" stroke="#222222" stroke-width="1.5"/>
</svg>
