<svg width="64" height="64" viewBox="0 0 64 64" fill="none" xmlns="http://www.w3.org/2000/svg">
<rect width="64" height="64" rx="32" fill="#F6F6F6"/>
<path d="M42.001 32.0005C42.001 33.3138 41.7423 34.6142 41.2398 35.8275C40.7372 37.0408 40.0006 38.1433 39.0719 39.0719C38.1433 40.0006 37.0408 40.7372 35.8275 41.2398C34.6142 41.7423 33.3138 42.001 32.0005 42.001C30.6872 42.001 29.3868 41.7423 28.1735 41.2398C26.9602 40.7372 25.8577 40.0006 24.9291 39.0719C24.0004 38.1433 23.2638 37.0408 22.7612 35.8275C22.2587 34.6142 22 33.3138 22 32.0005C22 29.3482 23.0536 26.8045 24.9291 24.9291C26.8045 23.0536 29.3482 22 32.0005 22C34.6528 22 37.1965 23.0536 39.0719 24.9291C40.9474 26.8045 42.001 29.3482 42.001 32.0005Z" stroke="#222222" stroke-width="1.5"/>
<path d="M36.0001 32C36.0001 33.313 35.8961 34.614 35.6951 35.827C35.4951 37.04 35.2001 38.142 34.8281 39.071C34.4571 40 34.0161 40.736 33.5311 41.239C33.0451 41.741 32.5251 42 32.0001 42C31.4751 42 30.9551 41.741 30.4701 41.239C29.9841 40.736 29.5431 39.999 29.1721 39.071C28.8001 38.142 28.5051 37.041 28.3041 35.827C28.099 34.5617 27.9973 33.2818 28.0001 32C28.0001 30.687 28.1031 29.386 28.3041 28.173C28.5051 26.96 28.8001 25.858 29.1721 24.929C29.5431 24 29.9841 23.264 30.4691 22.761C30.9551 22.26 31.4751 22 32.0001 22C32.5251 22 33.0451 22.259 33.5301 22.761C34.0161 23.264 34.4571 24.001 34.8281 24.929C35.2001 25.858 35.4951 26.959 35.6951 28.173C35.8971 29.386 36.0001 30.687 36.0001 32Z" stroke="#222222" stroke-width="1.5"/>
<path d="M22 32H42" stroke="#222222" stroke-width="1.5" stroke-linecap="round"/>
</svg>
