<svg width="24" height="24" viewBox="0 0 24 24" fill="none" xmlns="http://www.w3.org/2000/svg">
<path d="M8 20H3.5C2.672 20 2 19.3265 2 18.5V14C2 13.1735 2.672 12.5 3.5 12.5H8V9.5C8 8.6735 8.672 8 9.5 8H14V3.5C14 2.6735 14.672 2 15.5 2H20C20.828 2 21.5 2.6735 21.5 3.5V9.5H20V3.5H15.5V8C15.5 8.8265 14.828 9.5 14 9.5H9.5V12.5C9.5 13.3265 8.828 14 8 14H3.5V18.5H8V20ZM23 19.25V12.5C23 11.6735 22.328 11 21.5 11H17C16.172 11 15.5 11.6735 15.5 12.5V15.5H11C10.172 15.5 9.5 16.1735 9.5 17V21.5C9.5 22.3265 10.172 23 11 23H19.25C21.3185 23 23 21.317 23 19.25ZM15.5 17C16.328 17 17 16.3265 17 15.5V12.5H21.5V19.25C21.5 20.4905 20.4905 21.5 19.25 21.5H11V17H15.5Z" fill="#222222"/>
</svg>
