<svg width="64" height="64" viewBox="0 0 64 64" fill="none" xmlns="http://www.w3.org/2000/svg">
<rect width="64" height="64" rx="32" fill="#F6F6F6"/>
<path d="M29 30C31.2091 30 33 28.2091 33 26C33 23.7909 31.2091 22 29 22C26.7909 22 25 23.7909 25 26C25 28.2091 26.7909 30 29 30Z" stroke="#222222" stroke-width="1.5"/>
<path d="M29 41C32.866 41 36 39.2091 36 37C36 34.7909 32.866 33 29 33C25.134 33 22 34.7909 22 37C22 39.2091 25.134 41 29 41Z" stroke="#222222" stroke-width="1.5"/>
<path d="M38 28.5019L37.4326 29.0704C37.5069 29.1459 37.5953 29.2059 37.6927 29.2468C37.7901 29.2877 37.8945 29.3087 38 29.3087C38.1055 29.3087 38.2099 29.2877 38.3073 29.2468C38.4047 29.2059 38.4931 29.1459 38.5675 29.0704L38 28.5019ZM37.5136 32.0531C36.9942 31.6537 36.527 31.3338 36.1504 30.9193C35.8016 30.5349 35.6 30.1386 35.6 29.6379H34C34 30.6608 34.4416 31.4286 34.9707 32.0111C35.4731 32.5635 36.1195 33.0126 36.543 33.3378L37.5136 32.0531ZM35.6 29.6379C35.6 29.1942 35.856 28.8367 36.1835 28.6903C36.4683 28.5632 36.9195 28.5503 37.4326 29.0704L38.5675 27.9322C37.6395 26.99 36.4928 26.7854 35.536 27.2129C35.0755 27.4247 34.6855 27.7664 34.413 28.1969C34.1405 28.6273 33.9971 29.127 34 29.6379H35.6ZM36.543 33.3378C36.7008 33.4594 36.9078 33.6177 37.1243 33.7426C37.3408 33.8676 37.6438 34 38 34V32.3848C38.0363 32.3848 38.0182 32.3966 37.9126 32.3374C37.8059 32.2771 37.6864 32.1867 37.5136 32.0531L36.543 33.3378ZM39.4571 33.3378C39.8805 33.0115 40.5269 32.5635 41.0283 32.0111C41.5584 31.4286 42 30.6598 42 29.639H40.4C40.4 30.1386 40.1984 30.5349 39.8496 30.9203C39.4731 31.3338 39.0059 31.6537 38.4864 32.0531L39.4571 33.3378ZM42 29.639C42 28.5622 41.376 27.62 40.464 27.2129C39.5083 26.7854 38.3595 26.99 37.4326 27.9322L38.5675 29.0704C39.0795 28.5503 39.5317 28.5632 39.8155 28.6903C39.9925 28.7752 40.1417 28.9096 40.2453 29.0776C40.349 29.2456 40.4026 29.4411 40.4 29.639H42ZM38.4864 32.0531C38.3589 32.1555 38.2257 32.2504 38.0875 32.3374C37.9819 32.3977 37.9638 32.3848 38 32.3848V34C38.3563 34 38.6582 33.8676 38.8747 33.7426C39.0923 33.6188 39.2992 33.4594 39.4571 33.3378L38.4864 32.0531Z" fill="#222222"/>
</svg>
