<svg width="24" height="24" viewBox="0 0 24 24" fill="none" xmlns="http://www.w3.org/2000/svg">
<path d="M11.5 12.884L6.65589 17.7281C6.47465 17.9094 6.24398 18 5.96388 18C5.68378 18 5.4531 17.9094 5.27186 17.7281C5.09062 17.5469 5 17.3162 5 17.0361C5 16.756 5.09062 16.5253 5.27186 16.3441L10.116 11.5L5.27186 6.65589C5.09062 6.47465 5 6.24398 5 5.96388C5 5.68378 5.09062 5.4531 5.27186 5.27186C5.4531 5.09062 5.68378 5 5.96388 5C6.24398 5 6.47465 5.09062 6.65589 5.27186L11.5 10.116L16.3441 5.27186C16.5253 5.09062 16.756 5 17.0361 5C17.3162 5 17.5469 5.09062 17.7281 5.27186C17.9094 5.4531 18 5.68378 18 5.96388C18 6.24398 17.9094 6.47465 17.7281 6.65589L12.884 11.5L17.7281 16.3441C17.9094 16.5253 18 16.756 18 17.0361C18 17.3162 17.9094 17.5469 17.7281 17.7281C17.5469 17.9094 17.3162 18 17.0361 18C16.756 18 16.5253 17.9094 16.3441 17.7281L11.5 12.884Z" fill="black"/>
</svg>
